<svg width="75" height="75" viewBox="0 0 75 75" fill="none" xmlns="http://www.w3.org/2000/svg">
<circle cx="37.5" cy="37.5" r="37.5" fill="#6AC7B2" fill-opacity="0.08"/>
<circle cx="37.4137" cy="38.5782" r="12.8121" fill="white"/>
<path d="M37.9954 20.0391C28.1194 20.0391 20.0391 28.1194 20.0391 37.9954C20.0391 47.8714 28.1194 55.9518 37.9954 55.9518C47.8714 55.9518 55.9518 47.8714 55.9518 37.9954C55.9518 28.1194 47.8714 20.0391 37.9954 20.0391ZM45.8962 44.4597C45.7166 44.8188 45.178 45.178 44.6393 45.178C44.4597 45.178 44.1006 45.1779 43.921 44.9984L38.3545 41.5867C36.918 40.6889 36.0202 38.8932 36.0202 37.2772V29.9151C36.0202 29.1968 36.5589 28.4785 37.4567 28.4785C38.3545 28.4785 38.8932 29.0172 38.8932 29.9151V37.2772C38.8932 37.9954 39.4319 38.8932 39.9706 39.2524L45.5371 42.6641C46.0758 43.0232 46.2553 43.7414 45.8962 44.4597Z" fill="#6AC7B2"/>
</svg>
