<svg width="42" height="42" viewBox="0 0 42 42" fill="none" xmlns="http://www.w3.org/2000/svg">
<g clip-path="url(#clip0_1960_717)">
<path d="M12.3049 10.418H16.4062H20.5076C20.8985 10.418 21.264 10.2305 21.4983 9.91758C23.2906 7.52481 24.1992 4.87807 24.1992 2.05078V1.23047C24.1992 0.550922 23.6483 0 22.9688 0C20.6899 0 17.7175 1.47591 16.4062 2.19401C15.095 1.47591 12.1226 0 9.84375 0C9.1642 0 8.61328 0.550922 8.61328 1.23047V2.05078C8.61328 4.87807 9.52194 7.52481 11.3142 9.91758C11.5485 10.2305 11.9141 10.418 12.3049 10.418Z" fill="#27BAA4"/>
<path d="M17.3584 28.5034V31.9872C17.987 31.6479 18.3604 31.0215 18.4602 30.4277C18.5316 30.0035 18.5607 28.9854 17.3584 28.5034Z" fill="#27BAA4"/>
<path d="M14.69 24.0618C14.6037 24.5195 14.7147 24.946 14.9726 25.1483C15.0735 25.2275 15.1869 25.3049 15.3084 25.3809V23.0649C14.9502 23.3154 14.7551 23.7164 14.69 24.0618Z" fill="#27BAA4"/>
<path d="M23.1328 31.0351V24.9303C23.1328 23.2251 24.3593 21.7892 26.0493 21.5161C26.9231 21.3748 27.6834 20.8296 28.1016 20.0519C26.3389 17.614 24.2637 15.3437 22.2063 13.2476C21.9749 13.0117 21.6584 12.8789 21.3281 12.8789H11.4844C11.154 12.8789 10.8376 13.0117 10.6062 13.2475C5.36148 18.591 0 25.065 0 32.5664L8.20313e-05 32.6547C0.0115664 37.8077 4.27317 42 9.50012 42H23.3124C24.7738 42 26.1596 41.672 27.3983 41.0872C24.7314 38.5116 23.1328 34.915 23.1328 31.0351ZM20.483 30.7677C20.3265 31.6986 19.8582 32.5624 19.1643 33.1999C18.6454 33.6767 18.0326 34.003 17.3588 34.168V34.9453C17.3588 35.5117 16.8997 35.9707 16.3334 35.9707C15.7671 35.9707 15.308 35.5117 15.308 34.9453V34.2638C14.449 34.1928 13.7421 33.9662 12.7367 33.3085C12.2628 32.9985 12.1299 32.363 12.4399 31.8891C12.7499 31.4151 13.3853 31.2822 13.8593 31.5923C14.4407 31.9726 14.8118 32.1349 15.308 32.2008V27.6962C14.6277 27.3856 14.1214 27.0874 13.7065 26.762C12.8399 26.0822 12.4443 24.9021 12.6742 23.682C12.925 22.3515 13.8508 21.2929 15.0905 20.9195C15.1637 20.8975 15.2362 20.8773 15.308 20.8586V20.1797C15.308 19.6133 15.7671 19.1543 16.3334 19.1543C16.8997 19.1543 17.3588 19.6133 17.3588 20.1797V20.745C18.3875 20.9169 19.1139 21.4214 19.4642 21.8233C19.8362 22.2503 19.7918 22.898 19.3648 23.2701C18.9399 23.6403 18.2962 23.5979 17.9234 23.1767C17.8991 23.1518 17.7148 22.9733 17.3588 22.8505V26.3205C17.5526 26.3927 17.7461 26.4625 17.9362 26.5296C19.8051 27.1902 20.8048 28.8538 20.483 30.7677Z" fill="#27BAA4"/>
<path d="M41.1518 23.9454C39.4811 23.6753 38.0182 22.6176 37.2481 21.0721C37.1434 20.862 36.9256 20.7322 36.6909 20.7322H30.9029C30.6681 20.7322 30.4503 20.862 30.3457 21.0721C29.5755 22.6176 28.1127 23.6753 26.442 23.9454C25.9553 24.0241 25.5938 24.4372 25.5938 24.9302V31.035C25.5938 35.9814 28.751 40.3579 33.4071 41.9358C33.6596 42.0213 33.9343 42.0213 34.1868 41.9358C38.8428 40.358 42 35.9814 42 31.035V24.9302C42 24.4372 41.6385 24.0241 41.1518 23.9454ZM38.1472 29.9461L33.5069 34.5864C33.2666 34.8267 32.9517 34.9469 32.6369 34.9469C32.322 34.9469 32.007 34.8268 31.7668 34.5864L29.4467 32.2662C28.9661 31.7857 28.9661 31.0067 29.4467 30.5261C29.9271 30.0456 30.7063 30.0456 31.1868 30.5261L32.637 31.9762L36.4073 28.2059C36.8877 27.7254 37.6669 27.7254 38.1474 28.2059C38.6278 28.6866 38.6278 29.4656 38.1472 29.9461Z" fill="black"/>
</g>
<defs>
<clipPath id="clip0_1960_717">
<rect width="42" height="42" fill="white"/>
</clipPath>
</defs>
</svg>
