<svg width="18" height="17" viewBox="0 0 18 17" fill="none" xmlns="http://www.w3.org/2000/svg">
<path d="M18 12.3885C18 14.8757 15.984 16.8905 13.473 16.8994H13.464H4.545C2.043 16.8994 0 14.8936 0 12.4063V12.3974C0 12.3974 0.0054 8.4517 0.0126 6.46725C0.0135 6.09461 0.4455 5.886 0.7398 6.11779C2.8782 7.79824 6.7023 10.8623 6.75 10.9024C7.389 11.4096 8.199 11.6958 9.027 11.6958C9.855 11.6958 10.665 11.4096 11.304 10.8926C11.3517 10.8614 15.0903 7.88917 17.2611 6.18109C17.5563 5.94841 17.9901 6.15702 17.991 6.52877C18 8.49806 18 12.3885 18 12.3885Z" fill="#6AC7B2"/>
<path d="M17.5288 3.23541C16.7494 1.7805 15.2158 0.851562 13.5274 0.851562H4.54539C2.85699 0.851562 1.32338 1.7805 0.543984 3.23541C0.369383 3.56081 0.452184 3.96643 0.742884 4.19644L7.42539 9.49101C7.89339 9.86544 8.46039 10.0518 9.02739 10.0518C9.03099 10.0518 9.03369 10.0518 9.03639 10.0518C9.03909 10.0518 9.04269 10.0518 9.04539 10.0518C9.61239 10.0518 10.1794 9.86544 10.6474 9.49101L17.3299 4.19644C17.6206 3.96643 17.7034 3.56081 17.5288 3.23541Z" fill="#6AC7B2"/>
</svg>
