<svg width="65" height="65" viewBox="0 0 65 65" fill="none" xmlns="http://www.w3.org/2000/svg">
<ellipse cx="32.2619" cy="32.5" rx="32.2072" ry="32.5" fill="#6AC7B2" fill-opacity="0.08"/>
<g clip-path="url(#clip0_152_1813)">
<path d="M21.1858 30.0235V44.8145H24.6993C23.6544 43.0229 23.0803 40.9629 23.0803 38.8237V33.4992H24.0039C25.0502 33.4992 25.8985 32.6509 25.8985 31.6046V30.681H39.2076V31.6046C39.2076 32.6509 40.0559 33.4992 41.1022 33.4992H42.0258V38.8237C42.0258 40.9629 41.4517 43.0229 40.4067 44.8145H43.9203C43.9203 44.8145 43.9203 34.5687 43.9203 30.0002L32.5539 23.9851C30.73 24.9539 25.5303 27.7158 21.1858 30.0235Z" fill="#6AC7B2"/>
<path d="M32.5528 16.4634C31.6591 16.9741 17.3429 25.1541 16.4492 25.6648V30.394C17.0067 30.0979 31.8572 22.2099 32.5519 21.8408L32.5524 21.841L32.5528 21.8413C37.3201 24.3641 43.7413 27.7622 48.6564 30.3633C48.6564 29.8335 48.6564 26.223 48.6564 25.6648C47.7627 25.1541 33.4465 16.9741 32.5528 16.4634Z" fill="#6AC7B2"/>
<path d="M37.3109 33.5227C37.3109 33.1914 37.3109 32.9067 37.3109 32.5754C34.3908 32.5754 30.7131 32.5754 27.7908 32.5754V33.5227C27.7908 34.5544 26.9516 35.3936 25.9199 35.3936C25.5886 35.3936 25.3039 35.3936 24.9727 35.3936V38.8236C24.9727 42.305 26.7403 45.321 29.3576 47.097C30.9395 48.1702 32.3874 48.477 32.5508 48.5364C32.7136 48.4773 34.1618 48.1705 35.744 47.097C38.3311 45.3416 40.129 42.3397 40.129 38.8236C40.129 37.1196 40.129 36.3899 40.129 35.3936C39.7977 35.3936 39.513 35.3936 39.1817 35.3936C38.1502 35.3936 37.3109 34.5544 37.3109 33.5227ZM31.5461 43.3641L28.8668 40.6848L30.2064 39.3452L31.5461 40.6848C32.5668 39.6641 33.8136 38.4173 34.8952 37.3357L36.2348 38.6754C35.7621 39.1481 32.0188 42.8914 31.5461 43.3641Z" fill="#6AC7B2"/>
</g>
<defs>
<clipPath id="clip0_152_1813">
<rect width="32.2072" height="32.2072" fill="white" transform="translate(16.4512 16.396)"/>
</clipPath>
</defs>
</svg>
