<svg width="90" height="90" viewBox="0 0 90 90" fill="none" xmlns="http://www.w3.org/2000/svg">
<g clip-path="url(#clip0_1960_783)">
<path d="M11.2302 48.6678L17.3584 58.4006L23.1897 48.4872L34.3399 45.6667L26.7135 37.0572L27.477 25.5814L16.9322 30.1738L6.25338 25.9016L7.363 37.3494L0 46.1852L11.2302 48.6678Z" fill="#27BAA4"/>
<path d="M55.3271 45.6667L66.4773 48.4872L72.3086 58.4006L78.4368 48.6678L89.667 46.1852L82.304 37.3494L83.4137 25.9016L72.7348 30.1738L62.1901 25.5814L62.9535 37.0572L55.3271 45.6667Z" fill="#27BAA4"/>
<path d="M34.2213 37.5668L44.8338 33.1339L55.4462 37.5668L54.5104 26.1033L62.0054 17.3797L50.8142 14.7281L44.8338 4.90369L38.8533 14.7281L27.6621 17.3797L35.1571 26.1033L34.2213 37.5668Z" fill="#27BAA4"/>
<path d="M8.49023 66.4188H29.1884V84.7952H8.49023V66.4188Z" fill="black"/>
<path d="M60.4785 66.4188H81.1767V84.7952H60.4785V66.4188Z" fill="black"/>
<path d="M34.4551 66.4188H55.2121V84.7952H34.4551V66.4188Z" fill="black"/>
<path d="M33.5967 55.1816H56.0708V60.4485H33.5967V55.1816Z" fill="black"/>
</g>
<defs>
<clipPath id="clip0_1960_783">
<rect width="89.6667" height="89.6667" fill="white"/>
</clipPath>
</defs>
</svg>
