<svg width="18" height="18" viewBox="0 0 18 18" fill="none" xmlns="http://www.w3.org/2000/svg">
<path d="M15.3157 10.0506C15.1317 10.0506 14.9394 9.99191 14.7554 9.94998C14.3828 9.86763 14.0166 9.7583 13.6598 9.62285C13.2718 9.48129 12.8453 9.48865 12.4624 9.64349C12.0795 9.79834 11.7672 10.0897 11.5857 10.4616L11.4017 10.8391C10.5871 10.3846 9.83856 9.82016 9.17703 9.16153C8.52031 8.49807 7.9575 7.74736 7.50436 6.9304L7.85562 6.69554C8.22642 6.51346 8.51698 6.20027 8.67138 5.81625C8.82577 5.43223 8.8331 5.0045 8.69196 4.61539C8.55916 4.25675 8.4502 3.88968 8.36578 3.51659C8.32397 3.33206 8.29051 3.13915 8.26542 2.94623C8.16386 2.35542 7.8553 1.82038 7.39532 1.43748C6.93533 1.05458 6.35414 0.848972 5.75642 0.857688H3.24741C2.88697 0.854294 2.53004 0.928827 2.20091 1.07621C1.87178 1.2236 1.57817 1.44038 1.34009 1.71179C1.102 1.98321 0.925016 2.30289 0.821188 2.64906C0.71736 2.99524 0.689124 3.35979 0.738401 3.7179C1.18395 7.23183 2.7841 10.4968 5.2861 12.9969C7.78811 15.4971 11.0493 17.09 14.5547 17.5241H14.8725C15.4892 17.525 16.0847 17.2981 16.5451 16.8866C16.8097 16.6493 17.0211 16.3583 17.1653 16.033C17.3094 15.7077 17.3831 15.3554 17.3815 14.9994V12.4831C17.3712 11.9004 17.1597 11.3394 16.783 10.8958C16.4062 10.4522 15.8876 10.1535 15.3157 10.0506ZM15.7339 15.0833C15.7338 15.2024 15.7083 15.32 15.6593 15.4285C15.6103 15.537 15.5388 15.6337 15.4495 15.7123C15.3564 15.7937 15.2471 15.8544 15.129 15.8906C15.0108 15.9267 14.8863 15.9374 14.7638 15.922C11.6316 15.5193 8.72226 14.0822 6.49466 11.8375C4.26707 9.59274 2.84798 6.66814 2.46125 3.52498C2.44794 3.40212 2.45961 3.27782 2.49554 3.15961C2.53148 3.04139 2.59094 2.93171 2.67034 2.83719C2.74871 2.74772 2.84518 2.67601 2.95333 2.62684C3.06149 2.57767 3.17884 2.55216 3.29759 2.55201H5.8066C6.00108 2.54767 6.191 2.61146 6.34364 2.7324C6.49629 2.85335 6.60213 3.02387 6.64293 3.21464C6.67638 3.4439 6.7182 3.67037 6.76838 3.89404C6.865 4.3362 6.99357 4.77071 7.1531 5.19414L5.98223 5.73934C5.88211 5.78541 5.79206 5.85085 5.71724 5.93192C5.64242 6.01299 5.5843 6.10808 5.54622 6.21173C5.50814 6.31539 5.49086 6.42557 5.49535 6.53594C5.49985 6.64631 5.52604 6.75471 5.57242 6.85491C6.77608 9.44063 8.84855 11.5191 11.4268 12.7263C11.6304 12.8102 11.8588 12.8102 12.0624 12.7263C12.1667 12.6889 12.2625 12.6311 12.3444 12.5562C12.4262 12.4813 12.4924 12.3909 12.5391 12.2901L13.0576 11.1159C13.49 11.2709 13.9313 11.3998 14.379 11.5017C14.6021 11.552 14.8279 11.594 15.0565 11.6275C15.2467 11.6684 15.4167 11.7746 15.5373 11.9277C15.6579 12.0808 15.7215 12.2712 15.7172 12.4663L15.7339 15.0833Z" fill="#00B5E4"/>
</svg>
