<svg width="77" height="78" viewBox="0 0 77 78" fill="none" xmlns="http://www.w3.org/2000/svg">
<g clip-path="url(#clip0_1960_865)">
<path d="M49.6719 8.22597C49.4099 7.39165 48.6985 6.78227 47.8414 6.65968L42.7722 5.9301L40.5145 1.15508C39.7473 -0.385025 37.2541 -0.385025 36.4875 1.15508L34.2293 5.9301L29.16 6.65968C28.3029 6.78227 27.5915 7.39165 27.3295 8.22597C27.0652 9.06088 27.296 9.97375 27.9217 10.5784L31.5569 14.0817L30.6998 19.018C30.5523 19.8725 30.8936 20.7384 31.5833 21.252C32.283 21.7756 33.2041 21.8357 33.9537 21.446L38.5007 19.0805L43.05 21.446C43.8102 21.8453 44.7308 21.7655 45.4181 21.252C46.1078 20.7366 46.4491 19.8707 46.3016 19.018L45.4445 14.0817L49.0798 10.5784C49.7054 9.97375 49.9363 9.06088 49.6719 8.22597Z" fill="black"/>
<path d="M76.8926 17.3666C76.6306 16.5323 75.9192 15.9229 75.0621 15.8003L69.8425 15.0707L67.5843 10.5468C66.8176 9.00734 64.3238 9.00734 63.5572 10.5468L61.2996 15.0707L56.2304 15.8003C55.3732 15.9229 54.6618 16.5323 54.3998 17.3666C54.1355 18.2015 54.3663 19.1144 54.992 19.719L58.6272 23.2223L57.7701 28.1586C57.6226 29.0132 57.964 29.879 58.6536 30.3926C59.3533 30.9163 60.2739 30.9764 61.0241 30.5866L65.571 28.2211L70.1203 30.5866C70.8805 30.9883 71.7964 30.9079 72.4884 30.3926C73.1781 29.8772 73.5194 29.0114 73.372 28.1586L72.5148 23.2223L76.3005 19.719C76.9261 19.1144 77.157 18.2015 76.8926 17.3666Z" fill="black"/>
<path d="M22.6006 17.3666C22.3386 16.5323 21.6272 15.9229 20.7701 15.8003L15.7009 15.0707L13.4432 10.5468C12.676 9.00734 10.1828 9.00734 9.41619 10.5468L7.15798 15.0707L1.93837 15.8003C1.08126 15.9229 0.369838 16.5323 0.10783 17.3666C-0.156529 18.2015 0.0743442 19.1144 0.699993 19.719L4.48561 23.2223L3.6285 28.1586C3.48104 29.0132 3.82236 29.879 4.51204 30.3926C5.21171 30.9163 6.13285 30.9764 6.88246 30.5866L11.4294 28.2211L15.9787 30.5866C16.743 30.9883 17.6548 30.9079 18.3468 30.3926C19.0365 29.8772 19.3778 29.0114 19.2304 28.1586L18.3732 23.2223L22.0085 19.719C22.6341 19.1144 22.865 18.2015 22.6006 17.3666Z" fill="black"/>
<path d="M49.7793 39C49.7793 45.3104 44.7295 50.4258 38.5 50.4258C32.2705 50.4258 27.2207 45.3104 27.2207 39C27.2207 32.6896 32.2705 27.5742 38.5 27.5742C44.7295 27.5742 49.7793 32.6896 49.7793 39Z" fill="#27BAA4"/>
<path d="M18.1973 48.1406C18.1973 51.9266 15.1671 54.9961 11.4297 54.9961C7.69225 54.9961 4.66211 51.9266 4.66211 48.1406C4.66211 44.354 7.69225 41.2852 11.4297 41.2852C15.1671 41.2852 18.1973 44.354 18.1973 48.1406Z" fill="#27BAA4"/>
<path d="M72.3379 48.1406C72.3379 51.9266 69.3078 54.9961 65.5703 54.9961C61.8329 54.9961 58.8027 51.9266 58.8027 48.1406C58.8027 44.354 61.8329 41.2852 65.5703 41.2852C69.3078 41.2852 72.3379 44.354 72.3379 48.1406Z" fill="#27BAA4"/>
<path d="M22.709 78H54.291V70.9922C54.291 62.1574 47.2209 54.9961 38.5 54.9961C29.7791 54.9961 22.709 62.1574 22.709 70.9922V78Z" fill="#27BAA4"/>
<path d="M67.685 59.7639C63.5569 58.9945 59.7889 60.5352 57.2939 63.2827C58.2509 65.6678 58.8031 68.263 58.8031 70.9921V77.9999H74.7445C75.9906 77.9999 77.0004 76.977 77.0004 75.7148V71.4765C77.0004 65.8928 73.1055 60.7738 67.685 59.7639Z" fill="#27BAA4"/>
<path d="M2.25586 77.9999H18.1973V70.9921C18.1973 68.263 18.7495 65.6678 19.7065 63.2827C17.2115 60.5352 13.4435 58.9945 9.31541 59.7639C3.89488 60.7738 0 65.8928 0 71.4765V75.7148C0 76.977 1.00985 77.9999 2.25586 77.9999Z" fill="#27BAA4"/>
</g>
<defs>
<clipPath id="clip0_1960_865">
<rect width="77" height="78" fill="white"/>
</clipPath>
</defs>
</svg>
