<svg width="89" height="89" viewBox="0 0 89 89" fill="none" xmlns="http://www.w3.org/2000/svg">
<g clip-path="url(#clip0_1960_798)">
<path d="M21.5083 22.6207C18.5416 19.654 5.93328 18.9125 1.85405 18.5415C1.48328 18.5415 1.11233 18.5415 0.741551 18.9123C0.370775 19.2832 0 20.025 0 20.3957V53.7707C0 54.8832 0.741725 55.625 1.85422 55.625H12.9792C13.7209 55.625 14.4625 55.2542 14.8334 54.5125C14.8334 53.4 21.5084 33.7457 22.2502 24.1042C22.25 23.7332 22.25 22.9917 21.5083 22.6207Z" fill="black"/>
<path d="M61.1876 31.5207C57.4793 30.4082 54.1418 28.9249 51.1751 27.8124C44.5001 24.8457 41.5334 26.3292 35.6001 32.2624C33.0043 34.8582 31.1501 38.5667 31.5209 40.0499C31.5209 40.4207 31.5209 40.4207 32.2626 40.7917C34.1168 41.5334 36.7126 41.9042 39.3084 37.8249C39.6791 37.4542 40.0501 37.0832 40.7916 37.0832C41.9041 37.0832 42.2749 36.7124 43.3874 36.3415C44.1291 35.9707 44.8707 35.5998 45.9832 35.229C46.354 35.229 46.354 35.229 46.7249 35.229C47.0957 35.229 47.8374 35.5998 48.2082 35.5998C50.0626 37.4542 53.4001 40.0499 56.7376 43.0167C61.9293 47.0959 67.1209 51.5459 69.7168 54.8834H70.0876C67.4918 47.4667 63.0418 34.8582 61.1876 31.5207Z" fill="#27BAA4"/>
<path d="M87.1462 22.25C72.6837 22.25 64.5254 25.9583 64.1545 25.9583C63.7837 26.329 63.4128 26.7 63.042 27.0708C63.042 27.4416 63.042 28.1833 63.4128 28.5541C65.6378 32.2623 73.0545 52.6583 74.167 57.8498C74.5378 58.5915 75.2795 59.3331 76.0212 59.3331H87.1462C88.2587 59.3331 89.0004 58.5914 89.0004 57.4789V24.1039C89.0004 22.9917 88.2587 22.25 87.1462 22.25Z" fill="#27BAA4"/>
<path d="M67.1205 58.5917C65.6373 55.2542 59.333 50.4335 53.7705 45.9835C50.804 43.3875 47.8373 41.1625 45.6123 39.3083C45.2415 39.6791 44.4998 39.6791 44.4998 40.05C43.3873 40.4208 43.0165 40.7917 41.533 40.7917C38.5665 44.5 34.858 45.9833 30.779 44.5C28.9248 44.1292 27.8123 42.6458 27.4415 41.1625C26.6998 37.4542 30.0373 32.2625 32.6332 29.6667H25.2165C23.7332 37.0835 21.1373 46.725 19.2832 51.9167C20.7665 53.4 22.2499 55.2542 23.3624 55.996C30.4082 61.9292 38.5667 67.8627 40.0499 68.9752C41.1624 69.7169 43.3874 70.4585 44.4999 70.4585C44.8707 70.4585 45.2417 70.4585 45.6124 70.4585L39.679 64.525C38.9373 63.7833 38.9373 62.6708 39.679 61.9292C40.4207 61.1877 41.5332 61.1875 42.2748 61.9292L49.6915 69.346C50.4332 70.0877 51.1748 69.7167 51.9165 69.7167C53.029 69.346 53.3998 68.6042 53.7707 67.4917L45.2415 58.9625C44.4998 58.2208 44.4998 57.1083 45.2415 56.3667C45.9832 55.6252 47.0957 55.625 47.8373 56.3667L57.108 65.6375C57.4788 66.0083 58.9623 66.0083 60.0748 65.6375C60.4455 65.2667 61.1873 64.8958 61.558 64.1542L51.1748 53.7708C50.433 53.0291 50.433 51.9166 51.1748 51.175C51.9165 50.4335 53.029 50.4333 53.7705 51.175L64.5248 61.9292C65.2665 62.3 66.008 61.9292 66.7498 61.5585C67.1205 61.1875 67.8623 60.075 67.1205 58.5917Z" fill="black"/>
</g>
<defs>
<clipPath id="clip0_1960_798">
<rect width="89" height="89" fill="white"/>
</clipPath>
</defs>
</svg>
