<svg width="24" height="25" viewBox="0 0 24 25" fill="none" xmlns="http://www.w3.org/2000/svg">
<path d="M20.9426 13.4235C20.6787 13.4235 20.4028 13.3392 20.1389 13.2791C19.6044 13.161 19.0792 13.0042 18.5674 12.8099C18.0109 12.6068 17.3992 12.6174 16.85 12.8395C16.3007 13.0616 15.8528 13.4796 15.5924 14.013L15.3285 14.5543C14.1601 13.9025 13.0865 13.0929 12.1376 12.1482C11.1957 11.1966 10.3884 10.1198 9.73844 8.94799L10.2423 8.61113C10.7741 8.34996 11.1909 7.90074 11.4123 7.34993C11.6338 6.79911 11.6443 6.18561 11.4419 5.62749C11.2514 5.11308 11.0951 4.58658 10.974 4.05145C10.914 3.78677 10.8661 3.51007 10.8301 3.23336C10.6844 2.38593 10.2418 1.61851 9.58204 1.0693C8.92227 0.520094 8.08865 0.225185 7.23131 0.237686H3.63255C3.11556 0.232818 2.6036 0.339724 2.13152 0.551126C1.65943 0.762527 1.23831 1.07346 0.896808 1.46276C0.55531 1.85206 0.301458 2.31059 0.152534 2.80712C0.00360919 3.30366 -0.0368914 3.82655 0.033789 4.34019C0.672855 9.38035 2.96801 14.0633 6.55672 17.6494C10.1454 21.2355 14.8231 23.5203 19.851 24.1429H20.3068C21.1914 24.1442 22.0455 23.8187 22.706 23.2286C23.0855 22.8881 23.3886 22.4708 23.5954 22.0042C23.8022 21.5376 23.9079 21.0323 23.9056 20.5216V16.9124C23.8909 16.0767 23.5874 15.272 23.0471 14.6358C22.5067 13.9995 21.7629 13.571 20.9426 13.4235ZM21.5424 20.6419C21.5422 20.8128 21.5057 20.9816 21.4354 21.1371C21.365 21.2927 21.2625 21.4315 21.1345 21.5442C21.0009 21.661 20.8442 21.7481 20.6747 21.7999C20.5052 21.8517 20.3267 21.8671 20.1509 21.845C15.6583 21.2673 11.4853 19.206 8.2902 15.9864C5.09508 12.7667 3.05964 8.57183 2.50494 4.06348C2.48585 3.88725 2.50258 3.70897 2.55412 3.53941C2.60567 3.36985 2.69096 3.21253 2.80483 3.07696C2.91725 2.94863 3.05562 2.84577 3.21075 2.77524C3.36588 2.70472 3.5342 2.66813 3.70452 2.66791H7.30328C7.58224 2.66168 7.85464 2.75318 8.07359 2.92666C8.29254 3.10013 8.44434 3.34473 8.50287 3.61834C8.55085 3.94719 8.61083 4.27202 8.68281 4.59284C8.82138 5.22704 9.00581 5.85027 9.23462 6.45761L7.5552 7.23962C7.4116 7.30569 7.28244 7.39956 7.17512 7.51584C7.0678 7.63211 6.98443 7.76851 6.92982 7.91718C6.8752 8.06586 6.8504 8.22389 6.85685 8.38221C6.8633 8.54052 6.90087 8.696 6.9674 8.83971C8.69384 12.5485 11.6665 15.5298 15.3645 17.2613C15.6566 17.3816 15.9841 17.3816 16.2762 17.2613C16.4258 17.2076 16.5633 17.1247 16.6807 17.0173C16.798 16.9099 16.893 16.7802 16.96 16.6357L17.7037 14.9514C18.3238 15.1738 18.9568 15.3586 19.599 15.5048C19.9189 15.577 20.2428 15.6371 20.5707 15.6852C20.8435 15.7439 21.0874 15.8962 21.2604 16.1158C21.4334 16.3354 21.5246 16.6086 21.5184 16.8883L21.5424 20.6419Z" fill="#27BAA4"/>
</svg>
