<svg width="75" height="75" viewBox="0 0 75 75" fill="none" xmlns="http://www.w3.org/2000/svg">
<circle cx="37.5" cy="37.5" r="37.5" fill="#6AC7B2" fill-opacity="0.08"/>
<circle cx="37.8988" cy="28.5715" r="9.52381" fill="white"/>
<path d="M49.6055 28.9696C49.6055 22.1858 44.0866 16.6669 37.3028 16.6669C30.519 16.6669 25 22.1858 25 28.9696C25 35.7534 30.519 41.2723 37.3027 41.2723C44.0865 41.2723 49.6055 35.7534 49.6055 28.9696ZM32.5301 31.9155H34.9713C34.9713 32.7614 35.6594 33.4495 36.5052 33.4495H38.0729C38.9461 33.4495 39.6565 32.7391 39.6565 31.8659C39.6565 30.9927 38.9462 30.2823 38.0729 30.2823H36.5327C34.3134 30.2823 32.5078 28.4768 32.5078 26.2575C32.5078 24.1906 34.0742 22.4833 36.0822 22.2586V20.2271H38.5234V22.2631C40.5153 22.5039 42.0642 24.2036 42.0642 26.2593H39.6229C39.6229 25.3852 38.9118 24.674 38.0377 24.674H36.5327C35.6596 24.674 34.9492 25.3844 34.9492 26.2575C34.9492 27.1307 35.6596 27.8411 36.5327 27.8411H38.073C40.2923 27.8411 42.0978 29.6466 42.0978 31.8658C42.0978 33.9328 40.5314 35.64 38.5235 35.8648V37.8963H36.0823V35.8679C34.0885 35.656 32.5301 33.9645 32.5301 31.9155V31.9155Z" fill="#6AC7B2"/>
<path d="M45.4176 41.2728C43.0885 42.8138 40.2992 43.7128 37.3035 43.7128C34.3079 43.7128 31.5185 42.8139 29.1895 41.2728V46.6162H25.0371V48.3812L37.3035 58.3327L49.5699 48.3812V46.6162H45.4175V41.2728H45.4176Z" fill="#6AC7B2"/>
</svg>
