<svg width="67" height="67" viewBox="0 0 67 67" fill="none" xmlns="http://www.w3.org/2000/svg">
<path d="M33.5 2.09253C16.1672 2.09253 2.09375 16.166 2.09375 33.4988C2.09375 50.8315 16.1672 64.905 33.5 64.905C50.8328 64.905 64.9062 50.8315 64.9062 33.4988C64.9062 28.6813 63.8161 24.1162 61.874 20.0345L58.7559 23.1527C58.1671 23.7448 57.3642 24.0787 56.5292 24.0788H55.6623C56.8963 26.9735 57.5802 30.1566 57.5802 33.4988C57.5802 46.7844 46.7856 57.5788 33.5 57.5788C20.2144 57.5788 9.41983 46.7844 9.41983 33.4988C9.41983 20.2132 20.2144 9.41847 33.5 9.41847C36.8428 9.41847 40.0267 10.1019 42.9219 11.3364V10.4695C42.922 9.63445 43.256 8.83166 43.8481 8.24286L46.9642 5.12477C42.8825 3.18259 38.3174 2.09253 33.5 2.09253ZM33.5 16.7447C24.2616 16.7447 16.7459 24.2604 16.7459 33.4988C16.7459 42.7371 24.2616 50.2447 33.5 50.2447C42.7384 50.2447 50.2459 42.7371 50.2459 33.4988C50.2459 30.8334 49.6067 28.32 48.4957 26.0806L42.7603 31.8159C42.8597 32.3629 42.9198 32.9237 42.9198 33.4988C42.9198 38.6899 38.6912 42.9185 33.5 42.9185C28.3088 42.9185 24.0802 38.6899 24.0802 33.4988C24.0802 28.3076 28.3088 24.0788 33.5 24.0788C34.0751 24.0788 34.6358 24.139 35.1828 24.2383L40.9201 18.5009C38.6806 17.3876 36.167 16.7447 33.5 16.7447Z" fill="#27BAA4"/>
<path d="M53.1209 2.09248C52.8529 2.10047 52.5982 2.21082 52.4093 2.40099L45.0832 9.72706C44.9854 9.82433 44.9078 9.94007 44.8548 10.0674C44.8018 10.1948 44.7745 10.3313 44.7745 10.4693V17.3661L30.9504 31.1901C29.6832 32.4574 29.6832 34.5459 30.9504 35.8131C32.2177 37.0804 34.3001 37.0742 35.5673 35.8051L49.3893 21.9832H56.2881C56.426 21.9832 56.5626 21.956 56.69 21.903C56.8174 21.85 56.933 21.7725 57.0303 21.6747L64.3564 14.3485C64.5021 14.2018 64.6012 14.0153 64.6411 13.8125C64.681 13.6096 64.6599 13.3994 64.5805 13.2085C64.5011 13.0176 64.367 12.8544 64.195 12.7396C64.023 12.6248 63.8209 12.5635 63.6142 12.5634H58.8092L59.6434 11.7293C60.9106 10.4621 60.9167 8.37961 59.6497 7.11236C59.0161 6.47874 58.1761 6.16159 57.3372 6.16159C56.4983 6.16159 55.6603 6.4789 55.0267 7.11236L54.1945 7.94456V3.13345C54.194 2.99406 54.1656 2.85615 54.1111 2.72786C54.0566 2.59956 53.977 2.48351 53.877 2.38638C53.7771 2.28925 53.6587 2.21304 53.5289 2.16227C53.399 2.1115 53.2604 2.08714 53.121 2.09067L53.1209 2.09248Z" fill="black"/>
</svg>
