<svg width="75" height="74" viewBox="0 0 75 74" fill="none" xmlns="http://www.w3.org/2000/svg">
<ellipse cx="37.4987" cy="37" rx="36.6666" ry="37" fill="#6AC7B2" fill-opacity="0.08"/>
<g clip-path="url(#clip0_152_1781)">
<path fill-rule="evenodd" clip-rule="evenodd" d="M40.9562 21.1831C43.0864 21.6015 45.0658 22.44 46.8054 23.6078L49.9247 22.2224L52.61 24.9076L51.225 28.0259C52.3934 29.7656 53.2316 31.7457 53.6501 33.8764L56.8323 35.1013V38.8988L53.6492 40.1241C53.2309 42.2544 52.3924 44.2336 51.2246 45.9732L52.6099 49.0926L49.9247 51.7778L46.8064 50.3928C45.0667 51.5612 43.0865 52.3993 40.956 52.8178L39.7311 56.0001H35.9336L34.7083 52.8171C32.5781 52.3987 30.5988 51.5603 28.8592 50.3924L25.7399 51.7778L23.0546 49.0926L24.4396 45.9743C23.2711 44.2345 22.4331 42.2543 22.0146 40.1238L18.8323 38.8988V35.1013L22.0151 33.8762C22.4334 31.7458 23.2717 29.7662 24.4398 28.0267L23.0546 24.9077L25.7398 22.2225L28.859 23.6079C30.5987 22.44 32.578 21.6016 34.7083 21.1832L35.9335 18.0001H39.731L40.9562 21.1831ZM31.9484 36.7546L32.6271 36.2615V42.4236C32.6271 43.3045 33.3478 44.0252 34.2286 44.0252H36.2798V38.6524C36.2798 38.238 36.6189 37.899 37.0332 37.899H38.6314C39.0457 37.899 39.3848 38.238 39.3848 38.6524V44.0252H41.4359C42.3168 44.0252 43.0375 43.3045 43.0375 42.4236V36.2615L43.7162 36.7546C44.2171 37.1176 44.9175 37.0058 45.2805 36.5048C45.6434 36.0039 45.5316 35.3036 45.0307 34.9406L38.509 30.2023C38.1263 29.9121 37.5842 29.8917 37.1751 30.1882L30.634 34.9406C30.1331 35.3035 30.0213 36.0039 30.3843 36.5048C30.7471 37.0058 31.4475 37.1176 31.9484 36.7546ZM37.8323 25.9924C31.7529 25.9924 26.8246 30.9208 26.8246 37.0001C26.8246 43.0794 31.7529 48.0077 37.8323 48.0077C43.9116 48.0077 48.8399 43.0794 48.8399 37.0001C48.8399 30.9208 43.9116 25.9924 37.8323 25.9924Z" fill="#6AC7B2"/>
</g>
<defs>
<clipPath id="clip0_152_1781">
<rect width="38" height="38" fill="white" transform="translate(18.832 18.0005)"/>
</clipPath>
</defs>
</svg>
