<svg width="68" height="68" viewBox="0 0 68 68" fill="none" xmlns="http://www.w3.org/2000/svg">
<ellipse cx="34.18" cy="34" rx="33.6937" ry="34" fill="#6AC7B2" fill-opacity="0.08"/>
<g clip-path="url(#clip0_605_302)">
<path d="M43.2078 25.1114H38.7852V20.6887L43.2078 25.1114Z" fill="#6AC7B2"/>
<path d="M37.977 26.727C37.5312 26.727 37.1694 26.3652 37.1694 25.9193V20.2163H21.5108C21.0649 20.2163 20.7031 20.5781 20.7031 21.024V46.9762C20.7031 47.4221 21.0649 47.7839 21.5108 47.7839H34.3211V31.6202C34.3211 30.2844 35.4082 29.1973 36.744 29.1973H43.68V26.727H37.977ZM30.7976 41.0993C30.6657 41.8854 30.0993 42.6817 29.213 42.9935V43.176C29.213 43.6094 28.8711 43.9632 28.4425 43.9826C27.9735 44.003 27.5977 43.6288 27.5977 43.176V43.0802C27.2127 43.015 26.8628 42.8729 26.4191 42.5832C26.046 42.3393 25.9415 41.8385 26.1854 41.4654C26.4299 41.0917 26.9301 40.9873 27.3037 41.2312C27.658 41.4633 27.8244 41.5376 28.4425 41.5144C28.891 41.4907 29.1511 41.1483 29.2044 40.8311C29.3 40.2681 28.8251 40.172 28.4425 40.0278C27.8691 39.814 27.3086 39.5658 26.8924 39.2395C26.3674 38.8276 26.1262 38.1212 26.2629 37.3949C26.4046 36.6465 26.9118 36.0445 27.5977 35.8006V35.6671C27.5977 35.2169 27.9703 34.84 28.4425 34.8605C28.8711 34.8799 29.213 35.2336 29.213 35.6671V35.7516C29.6384 35.8727 29.9657 36.0806 30.1515 36.2518C30.1515 36.2518 30.3006 36.4123 30.3459 36.5178C30.3911 36.6239 30.5575 37.1908 30.0228 37.5236C29.4881 37.8558 29.0703 37.4514 29.0703 37.4514C28.8781 37.2937 28.5324 37.2016 28.1561 37.3157C27.8233 37.4159 27.7899 37.8908 27.8895 37.9689C28.2308 38.2369 28.9043 38.481 29.3153 38.6263C30.3868 39.0053 30.9823 39.9987 30.7976 41.0993V41.0993ZM33.4004 27.203C33.1941 27.5067 32.8043 27.6379 32.4473 27.505V31.0818C32.4473 31.5276 32.0861 31.8894 31.6397 31.8894H24.8889C24.4431 31.8894 24.0812 31.5276 24.0812 31.0818V27.505C23.7363 27.6341 23.3416 27.5162 23.1282 27.203C22.8778 26.8336 22.9742 26.3312 23.343 26.0809C23.3468 26.0783 27.8158 23.0447 27.8158 23.0447C28.0729 22.8761 28.422 22.8513 28.7182 23.0479C28.7182 23.0479 33.1854 26.0804 33.1861 26.0809C33.5549 26.3312 33.6513 26.8336 33.4004 27.203V27.203ZM25.6965 26.4352V30.2742H30.8321V26.4352L28.2643 24.6923L25.6965 26.4352Z" fill="#6AC7B2"/>
<path d="M48.2718 31.6201V33.7739H35.9375V31.6201C35.9375 31.1738 36.2988 30.8125 36.7451 30.8125H47.4642C47.91 30.8125 48.2718 31.1738 48.2718 31.6201Z" fill="#6AC7B2"/>
<path d="M35.9375 35.3892V47.7838H47.4642C47.9102 47.7838 48.2718 47.4222 48.2718 46.9762V35.3892H35.9375ZM45.3202 37.5483C45.7644 37.5483 46.1246 37.9101 46.1246 38.3559C46.1246 38.8017 45.7644 39.1635 45.3202 39.1635C44.876 39.1635 44.5158 38.8017 44.5158 38.3559C44.5158 37.9101 44.876 37.5483 45.3202 37.5483ZM38.8859 45.6247C38.4417 45.6247 38.0815 45.2629 38.0815 44.8171C38.0815 44.3707 38.4417 44.0094 38.8859 44.0094C39.3301 44.0094 39.6903 44.3707 39.6903 44.8171C39.6903 45.2629 39.3301 45.6247 38.8859 45.6247ZM38.8859 42.3941C38.4417 42.3941 38.0815 42.0323 38.0815 41.5865C38.0815 41.1401 38.4417 40.7788 38.8859 40.7788C39.3301 40.7788 39.6903 41.1401 39.6903 41.5865C39.6903 42.0323 39.3301 42.3941 38.8859 42.3941ZM38.8859 39.1635C38.4417 39.1635 38.0815 38.8017 38.0815 38.3559C38.0815 37.9101 38.4417 37.5483 38.8859 37.5483C39.3301 37.5483 39.6903 37.9101 39.6903 38.3559C39.6903 38.8017 39.3301 39.1635 38.8859 39.1635ZM42.1031 45.6247C41.6588 45.6247 41.2986 45.2629 41.2986 44.8171C41.2986 44.3707 41.6588 44.0094 42.1031 44.0094C42.5473 44.0094 42.9075 44.3707 42.9075 44.8171C42.9075 45.2629 42.5473 45.6247 42.1031 45.6247ZM42.1031 42.3941C41.6588 42.3941 41.2986 42.0323 41.2986 41.5865C41.2986 41.1401 41.6588 40.7788 42.1031 40.7788C42.5473 40.7788 42.9075 41.1401 42.9075 41.5865C42.9075 42.0323 42.5473 42.3941 42.1031 42.3941ZM42.1031 39.1635C41.6588 39.1635 41.2986 38.8017 41.2986 38.3559C41.2986 37.9095 41.6588 37.5483 42.1031 37.5483C42.5473 37.5483 42.9075 37.9095 42.9075 38.3559C42.9075 38.8017 42.5473 39.1635 42.1031 39.1635ZM46.1278 44.8171C46.1278 45.276 45.7444 45.6459 45.2806 45.6237C44.8463 45.603 44.5125 45.2287 44.5125 44.794V41.6093C44.5125 41.1746 44.8463 40.8005 45.2805 40.7797C45.7443 40.7576 46.1278 41.1269 46.1278 41.5864V44.8171Z" fill="#6AC7B2"/>
</g>
<defs>
<clipPath id="clip0_605_302">
<rect width="27.5676" height="27.5676" fill="white" transform="translate(20.7031 20.2158)"/>
</clipPath>
</defs>
</svg>
