<svg width="63" height="63" viewBox="0 0 63 63" fill="none" xmlns="http://www.w3.org/2000/svg">
<ellipse cx="31.4995" cy="31.5001" rx="31.2163" ry="31.5001" fill="#6AC7B2" fill-opacity="0.08"/>
<path d="M19.4364 23.2046C21.4189 23.2046 23.031 24.8167 23.031 26.7992C23.031 28.7817 21.4164 30.3938 19.4364 30.3938C17.4539 30.3938 15.8418 28.7817 15.8418 26.7992C15.8418 24.8167 17.4539 23.2046 19.4364 23.2046Z" fill="#6AC7B2"/>
<path d="M25.1576 33.7446C24.0121 34.9987 23.3282 36.5714 23.19 38.2576H12.7715V36.959C12.7715 33.6804 15.4378 31.014 18.7164 31.014H19.4373H20.1582C22.1753 31.014 24.0689 32.0534 25.1576 33.7446V33.7446Z" fill="#6AC7B2"/>
<path d="M43.8798 30.3938C45.865 30.3938 47.4744 28.7845 47.4744 26.7992C47.4744 24.814 45.865 23.2046 43.8798 23.2046C41.8945 23.2046 40.2852 24.814 40.2852 26.7992C40.2852 28.7845 41.8945 30.3938 43.8798 30.3938Z" fill="#6AC7B2"/>
<path d="M50.5443 36.9591V38.2577H40.1259C39.9876 36.5715 39.3037 34.9989 38.1582 33.7447C39.247 32.0535 41.143 31.0142 43.1601 31.0142H43.881H44.6019C47.878 31.0142 50.5443 33.6805 50.5443 36.9591Z" fill="#6AC7B2"/>
<path d="M31.6578 22.7041C34.0131 22.7041 35.9289 24.6199 35.9289 26.9752C35.9289 29.3305 34.0131 31.2463 31.6578 31.2463C29.3025 31.2463 27.3867 29.3305 27.3867 26.9752C27.3867 24.6199 29.3025 22.7041 31.6578 22.7041ZM33.3687 27.8812C33.3687 27.6442 33.307 27.4344 33.1835 27.2517L33.1811 27.2492C33.0601 27.069 32.8675 26.9184 32.6157 26.7999C32.4429 26.7209 32.1368 26.6345 31.68 26.5308L31.6553 26.5259C31.2356 26.4296 30.9739 26.3358 30.8777 26.2493C30.7888 26.1679 30.7419 26.0617 30.7419 25.9358C30.7419 25.7852 30.8085 25.6568 30.9443 25.5482C31.0826 25.4371 31.3122 25.3803 31.6282 25.3803H31.6356C31.9343 25.3828 32.159 25.4445 32.3071 25.5655C32.4133 25.6519 32.4873 25.7679 32.5318 25.9161C32.5762 26.0617 32.7071 26.1605 32.8577 26.1605H32.8848C32.9885 26.1531 33.0799 26.0988 33.1391 26.0148C33.1984 25.9309 33.2156 25.8247 33.186 25.726C33.149 25.6025 33.0947 25.484 33.0231 25.3754C32.8898 25.1705 32.6947 25.0149 32.4478 24.9112C32.2997 24.8495 32.1368 24.8051 31.9615 24.7804V24.5335C31.9615 24.3632 31.8232 24.2249 31.6529 24.2249C31.4825 24.2249 31.3443 24.3632 31.3443 24.5335V24.7705C31.1542 24.7927 30.9789 24.8372 30.8159 24.9038C30.574 25.0026 30.3888 25.1532 30.2604 25.3458C30.1345 25.5383 30.0703 25.7506 30.0703 25.9728C30.0703 26.1753 30.1222 26.3629 30.2283 26.5283C30.332 26.6937 30.49 26.832 30.6974 26.9406C30.8579 27.027 31.127 27.1134 31.5195 27.2073C31.5541 27.2147 31.5887 27.2245 31.6232 27.2319C31.9393 27.3085 32.1516 27.3677 32.2528 27.4072C32.4133 27.469 32.5268 27.543 32.596 27.6294C32.6626 27.7134 32.6947 27.8146 32.6947 27.9282C32.6947 28.0417 32.6602 28.1479 32.591 28.2442C32.5219 28.3405 32.4108 28.4195 32.2627 28.4762C32.1121 28.5355 31.9318 28.5651 31.7319 28.5651C31.6998 28.5651 31.6726 28.5651 31.643 28.5626C31.4529 28.5528 31.2776 28.5157 31.1221 28.4466C30.9468 28.3701 30.8159 28.2689 30.7345 28.1479C30.6826 28.0713 30.6406 27.9775 30.6135 27.8738C30.574 27.7282 30.4382 27.6245 30.2851 27.6245C30.2753 27.6245 30.2654 27.6245 30.2555 27.627C30.1568 27.6344 30.0679 27.6862 30.0086 27.7677C29.9518 27.8467 29.9321 27.9454 29.9518 28.0417C29.9913 28.2096 30.058 28.3651 30.1518 28.5108C30.3024 28.7429 30.5147 28.9182 30.7814 29.0317C30.9443 29.1009 31.1319 29.1502 31.3443 29.1774V29.4243C31.3443 29.5946 31.4825 29.7329 31.6529 29.7329C31.8232 29.7329 31.9615 29.5946 31.9615 29.4243V29.1922C32.1886 29.1725 32.396 29.1181 32.5861 29.0317C32.8354 28.9182 33.028 28.7552 33.1613 28.5478C33.302 28.3405 33.3687 28.1158 33.3687 27.8812V27.8812Z" fill="#6AC7B2"/>
<path d="M39.5344 38.8968V40.4744H23.7832V38.8968C23.7832 38.7931 23.7857 38.6869 23.7906 38.5832C23.8696 36.8057 24.6103 35.1985 25.7731 34.0011C27.0519 32.6852 28.8394 31.8655 30.8144 31.8655H31.6588H32.5031C34.4782 31.8655 36.2656 32.6852 37.5445 34.0011C38.7073 35.1985 39.448 36.8057 39.527 38.5832C39.5319 38.6869 39.5344 38.7906 39.5344 38.8968Z" fill="#6AC7B2"/>
</svg>
