<svg width="71" height="71" viewBox="0 0 71 71" fill="none" xmlns="http://www.w3.org/2000/svg">
<circle cx="35.5" cy="35.5" r="35.5" fill="#6AC7B2" fill-opacity="0.08"/>
<g clip-path="url(#clip0_152_1862)">
<path d="M31.3487 43.4616C30.7698 43.2742 30.2387 42.9629 29.7924 42.5492C29.3461 42.1356 28.9954 41.6296 28.7647 41.0666C28.6817 40.8718 28.5459 40.704 28.3727 40.5822C28.1995 40.4604 27.9957 40.3894 27.7843 40.3772C27.1743 40.3353 26.5805 40.1629 26.0429 39.8716L22.7236 48.604C22.6884 48.6952 22.6802 48.7946 22.6999 48.8904C22.7196 48.9861 22.7664 49.0742 22.8347 49.1441C22.9031 49.214 22.99 49.2629 23.0853 49.2848C23.1805 49.3067 23.2801 49.3009 23.3721 49.2679L27.391 47.8227L29.4337 51.5761C29.4785 51.656 29.5437 51.7227 29.6226 51.7694C29.7016 51.816 29.7914 51.8409 29.8831 51.8416H29.9188C30.0157 51.835 30.1086 51.8007 30.1864 51.7427C30.2643 51.6848 30.3239 51.6056 30.358 51.5148L33.3658 43.6097C33.1349 43.6506 32.9008 43.6711 32.6662 43.671C32.2188 43.6704 31.7742 43.5998 31.3487 43.4616Z" fill="#6AC7B2"/>
<path d="M48.2773 48.604L44.9579 39.8716C44.4222 40.1628 43.83 40.3353 43.2217 40.3772C43.0094 40.3886 42.8046 40.4593 42.6304 40.5811C42.4562 40.7029 42.3196 40.8711 42.2361 41.0666C42.0054 41.6296 41.6547 42.1356 41.2084 42.5492C40.7622 42.9629 40.2311 43.2742 39.6521 43.4616C39.2266 43.5998 38.782 43.6704 38.3346 43.671C38.1001 43.6711 37.866 43.6506 37.635 43.6097L40.6428 51.5148C40.677 51.6056 40.7365 51.6848 40.8144 51.7427C40.8923 51.8007 40.9852 51.835 41.082 51.8416H41.1177C41.2094 51.8409 41.2993 51.816 41.3782 51.7694C41.4571 51.7227 41.5223 51.656 41.5671 51.5761L43.6098 47.8227L47.6287 49.2679C47.7207 49.3009 47.8203 49.3067 47.9156 49.2848C48.0108 49.2629 48.0978 49.214 48.1661 49.1441C48.2344 49.0742 48.2812 48.9861 48.3009 48.8904C48.3206 48.7946 48.3124 48.6952 48.2773 48.604Z" fill="#6AC7B2"/>
<path d="M35.5009 23.7544C34.0869 23.7544 32.7046 24.1737 31.5289 24.9593C30.3532 25.7448 29.4369 26.8614 28.8958 28.1678C28.3547 29.4741 28.2131 30.9116 28.4889 32.2985C28.7648 33.6853 29.4457 34.9592 30.4455 35.959C31.4454 36.9589 32.7193 37.6398 34.1061 37.9156C35.4929 38.1915 36.9304 38.0499 38.2368 37.5088C39.5432 36.9677 40.6597 36.0513 41.4453 34.8756C42.2309 33.6999 42.6502 32.3177 42.6502 30.9037C42.648 29.0082 41.8941 27.191 40.5538 25.8507C39.2135 24.5104 37.3963 23.7565 35.5009 23.7544ZM39.8455 30.0815L38.0432 31.8377L38.4686 34.3175C38.4846 34.4113 38.4741 34.5078 38.4382 34.596C38.4024 34.6842 38.3425 34.7606 38.2655 34.8166C38.1885 34.8726 38.0974 34.9059 38.0024 34.9129C37.9075 34.9198 37.8125 34.9 37.7281 34.8558L35.5009 33.6852L33.2737 34.8559C33.1894 34.9001 33.0944 34.9198 32.9994 34.9129C32.9045 34.906 32.8133 34.8726 32.7363 34.8166C32.6593 34.7607 32.5995 34.6842 32.5636 34.5961C32.5277 34.5079 32.5172 34.4114 32.5332 34.3175L32.9586 31.8378L31.1562 30.0815C31.088 30.015 31.0397 29.9307 31.0168 29.8382C30.994 29.7456 30.9975 29.6485 31.0269 29.5578C31.0564 29.4672 31.1107 29.3866 31.1836 29.3252C31.2565 29.2638 31.3452 29.224 31.4395 29.2103L33.9295 28.8485L35.0431 26.5924C35.09 26.5128 35.157 26.4468 35.2373 26.4009C35.3176 26.3551 35.4084 26.331 35.5009 26.331C35.5933 26.331 35.6842 26.3551 35.7645 26.4009C35.8448 26.4468 35.9117 26.5128 35.9587 26.5924L37.0722 28.8485L39.5622 29.2103C39.6566 29.224 39.7452 29.2638 39.8181 29.3252C39.8911 29.3866 39.9453 29.4672 39.9748 29.5578C40.0043 29.6485 40.0078 29.7456 39.9849 29.8382C39.9621 29.9307 39.9138 30.015 39.8455 30.0815Z" fill="#6AC7B2"/>
<path d="M36.2743 29.5419L35.4998 27.9731L34.7254 29.5419C34.6888 29.6162 34.6347 29.6805 34.5677 29.7292C34.5007 29.7779 34.4228 29.8096 34.3409 29.8214L32.6094 30.073L33.8626 31.2944C33.9218 31.3522 33.9661 31.4236 33.9916 31.5023C34.0172 31.581 34.0232 31.6648 34.0093 31.7464L33.7135 33.4709L35.2625 32.6568C35.3357 32.6182 35.4172 32.5981 35.4999 32.5981C35.5827 32.5981 35.6642 32.6182 35.7374 32.6568L37.2863 33.4709L36.9906 31.7464C36.9766 31.6648 36.9827 31.581 37.0082 31.5023C37.0338 31.4236 37.0781 31.3522 37.1373 31.2944L38.3902 30.073L36.659 29.8214C36.577 29.8096 36.4992 29.778 36.4321 29.7292C36.3651 29.6805 36.3109 29.6162 36.2743 29.5419Z" fill="#6AC7B2"/>
<path d="M39.336 42.4899C39.7736 42.3488 40.1752 42.1139 40.5128 41.8016C40.8503 41.4893 41.1157 41.1072 41.2904 40.6819C41.4466 40.3096 41.7036 39.9882 42.0323 39.7539C42.3611 39.5195 42.7487 39.3815 43.1515 39.3552C43.6181 39.325 44.0722 39.1923 44.4816 38.9666C44.8911 38.7409 45.2457 38.4277 45.5203 38.0494C45.7893 37.6797 45.9734 37.2553 46.0595 36.8064C46.1456 36.3575 46.1316 35.8951 46.0186 35.4521C45.923 35.0649 45.939 34.6584 46.0649 34.2799C46.1908 33.9014 46.4213 33.5662 46.7297 33.3133C47.0867 33.0206 47.3743 32.6523 47.5715 32.2348C47.7688 31.8174 47.8708 31.3614 47.8702 30.8998C47.8697 30.4381 47.7665 29.9823 47.5682 29.5654C47.3699 29.1485 47.0815 28.7809 46.7237 28.4891C46.4164 28.2352 46.1872 27.8995 46.0628 27.5208C45.9383 27.1421 45.9235 26.7359 46.0202 26.3491C46.1324 25.907 46.1458 25.4455 46.0594 24.9976C45.9731 24.5497 45.7891 24.1264 45.5206 23.7576C45.2452 23.3788 44.8897 23.0654 44.4794 22.8397C44.0691 22.614 43.6141 22.4816 43.1468 22.4518C42.7447 22.4247 42.3581 22.2864 42.0302 22.0521C41.7023 21.8179 41.4461 21.4971 41.2901 21.1255C41.1155 20.7002 40.8502 20.3181 40.5127 20.0059C40.1752 19.6936 39.7736 19.4588 39.336 19.3177C38.8921 19.1726 38.4219 19.126 37.9582 19.1812C37.4945 19.2364 37.0484 19.3921 36.651 19.6374C36.3045 19.8491 35.9063 19.9611 35.5003 19.9611C35.0942 19.9611 34.6961 19.8491 34.3496 19.6374C33.9522 19.3921 33.5061 19.2364 33.0424 19.1812C32.5786 19.126 32.1085 19.1726 31.6646 19.3177C31.2271 19.4589 30.8257 19.6938 30.4884 20.006C30.151 20.3182 29.8858 20.7003 29.7112 21.1255C29.5548 21.4977 29.2977 21.819 28.9689 22.0534C28.6401 22.2877 28.2525 22.4258 27.8496 22.4522C27.383 22.4824 26.9289 22.6151 26.5195 22.8408C26.11 23.0665 25.7554 23.3797 25.4807 23.758C25.2118 24.1277 25.0277 24.5521 24.9416 25.001C24.8555 25.4499 24.8695 25.9123 24.9825 26.3553C25.0781 26.7425 25.062 27.149 24.9362 27.5275C24.8103 27.9061 24.5798 28.2412 24.2714 28.4942C23.9143 28.7868 23.6268 29.1552 23.4296 29.5726C23.2323 29.99 23.1303 30.446 23.1309 30.9077C23.1314 31.3693 23.2346 31.8251 23.4329 32.242C23.6312 32.6589 23.9196 33.0265 24.2774 33.3183C24.5847 33.5722 24.8139 33.9079 24.9383 34.2866C25.0628 34.6653 25.0776 35.0715 24.9809 35.4583C24.8687 35.9004 24.8553 36.3618 24.9417 36.8098C25.028 37.2577 25.212 37.681 25.4805 38.0498C25.7559 38.4286 26.1114 38.742 26.5217 38.9677C26.932 39.1934 27.387 39.3258 27.8543 39.3556C28.2564 39.3827 28.643 39.521 28.9709 39.7553C29.2987 39.9895 29.555 40.3103 29.711 40.6819C29.8856 41.1072 30.1509 41.4892 30.4883 41.8015C30.8258 42.1137 31.2273 42.3485 31.6649 42.4896C32.1088 42.6347 32.5789 42.6813 33.0427 42.6261C33.5064 42.5709 33.9525 42.4152 34.3499 42.1699C34.6963 41.9584 35.0944 41.8464 35.5003 41.8464C35.9063 41.8464 36.3044 41.9584 36.6508 42.1699L36.6513 42.1702C37.0487 42.4153 37.4947 42.5709 37.9583 42.6261C38.4219 42.6813 38.892 42.6348 39.3358 42.4899L39.336 42.4899ZM35.5005 39.0743C33.8845 39.0743 32.3048 38.5951 30.9612 37.6973C29.6175 36.7995 28.5703 35.5235 27.9519 34.0305C27.3334 32.5375 27.1716 30.8946 27.4869 29.3097C27.8022 27.7247 28.5804 26.2689 29.723 25.1262C30.8657 23.9835 32.3216 23.2053 33.9065 22.8901C35.4915 22.5748 37.1343 22.7366 38.6273 23.355C40.1203 23.9734 41.3964 25.0207 42.2942 26.3643C43.192 27.708 43.6712 29.2877 43.6712 30.9037C43.6687 33.0699 42.8071 35.1467 41.2753 36.6785C39.7436 38.2102 37.6668 39.0719 35.5005 39.0743Z" fill="#6AC7B2"/>
</g>
<defs>
<clipPath id="clip0_152_1862">
<rect width="32.6825" height="32.6825" fill="white" transform="translate(19.1602 19.1587)"/>
</clipPath>
</defs>
</svg>
