<svg width="244" height="49" viewBox="0 0 244 49" fill="none" xmlns="http://www.w3.org/2000/svg">
<path d="M24.4 0L29.8781 16.86H47.6058L33.2638 27.28L38.7419 44.14L24.4 33.72L10.058 44.14L15.5362 27.28L1.19422 16.86H18.9218L24.4 0Z" fill="#F0CC0F"/>
<path d="M73.2008 0L78.6789 16.86H96.4065L82.0646 27.28L87.5427 44.14L73.2008 33.72L58.8588 44.14L64.337 27.28L49.995 16.86H67.7226L73.2008 0Z" fill="#F0CC0F"/>
<path d="M122.002 0L127.48 16.86H145.207L130.865 27.28L136.344 44.14L122.002 33.72L107.66 44.14L113.138 27.28L98.7958 16.86H116.523L122.002 0Z" fill="#F0CC0F"/>
<path d="M170.798 0L176.277 16.86H194.004L179.662 27.28L185.14 44.14L170.798 33.72L156.456 44.14L161.935 27.28L147.593 16.86H165.32L170.798 0Z" fill="#F0CC0F"/>
<path d="M219.599 0L225.077 16.86H242.805L228.463 27.28L233.941 44.14L219.599 33.72L205.257 44.14L210.735 27.28L196.393 16.86H214.121L219.599 0Z" fill="#F0CC0F"/>
</svg>
