<svg width="43" height="43" viewBox="0 0 43 43" fill="none" xmlns="http://www.w3.org/2000/svg">
<path d="M9.41651 30.3678C9.41651 29.7271 8.89755 29.2081 8.25684 29.2081H2.4585C1.81778 29.2081 1.29883 29.7271 1.29883 30.3678V39.7225C1.29883 40.3632 1.81778 40.8821 2.4585 40.8821H8.25684C8.89755 40.8821 9.41651 40.3632 9.41651 39.7225V30.3678Z" fill="#27BAA4"/>
<path d="M18.7715 22.2501H12.9731C12.3324 22.2501 11.8135 22.7691 11.8135 23.4098V39.7225C11.8135 40.3632 12.3324 40.8821 12.9731 40.8821H18.7715C19.4122 40.8821 19.9312 40.3632 19.9312 39.7225V23.4098C19.9312 22.7691 19.4122 22.2501 18.7715 22.2501Z" fill="#27BAA4"/>
<path d="M29.208 19.9308H23.4097C22.769 19.9308 22.25 20.4497 22.25 21.0905V39.7225C22.25 40.3632 22.769 40.8821 23.4097 40.8821H29.208C29.8487 40.8821 30.3677 40.3632 30.3677 39.7225V21.0905C30.3677 20.4497 29.8487 19.9308 29.208 19.9308Z" fill="#27BAA4"/>
<path d="M39.7227 10.6534H33.9243C33.2836 10.6534 32.7646 11.1724 32.7646 11.8131V39.7225C32.7646 40.3632 33.2836 40.8821 33.9243 40.8821H39.7227C40.3634 40.8821 40.8823 40.3632 40.8823 39.7225V11.8131C40.8823 11.1724 40.3634 10.6534 39.7227 10.6534Z" fill="#27BAA4"/>
<path d="M5.43506 26.8115C7.35334 26.8115 8.91406 25.2508 8.91406 23.3325C8.91406 23.0066 8.85463 22.6976 8.77056 22.3985L13.2889 19.2089C13.8562 19.6117 14.5452 19.8535 15.2922 19.8535C17.0523 19.8535 18.4956 18.5354 18.7244 16.8369L23.351 15.8628C23.9634 16.8611 25.055 17.5342 26.3091 17.5342C28.2274 17.5342 29.7881 15.9735 29.7881 14.0552C29.7881 13.5913 29.6929 13.1502 29.5277 12.7452L35.0779 7.81181C35.5756 8.08651 36.1385 8.25684 36.7461 8.25684C38.6644 8.25684 40.2251 6.69612 40.2251 4.77783C40.2251 2.85955 38.6644 1.29883 36.7461 1.29883C34.8278 1.29883 33.2671 2.85955 33.2671 4.77783C33.2671 5.2417 33.3623 5.68286 33.5275 6.08777L27.9773 11.0212C27.4796 10.7465 26.9167 10.5762 26.3091 10.5762C24.549 10.5762 23.1057 11.8943 22.877 13.5928L18.2504 14.5669C17.6379 13.5686 16.5464 12.8955 15.2922 12.8955C13.374 12.8955 11.8132 14.4562 11.8132 16.3745C11.8132 16.7004 11.8727 17.0094 11.9567 17.3085L7.43839 20.4981C6.87112 20.0954 6.18208 19.8535 5.43506 19.8535C3.51677 19.8535 1.95605 21.4142 1.95605 23.3325C1.95605 25.2508 3.51677 26.8115 5.43506 26.8115Z" fill="black"/>
</svg>
