<svg width="73" height="73" viewBox="0 0 73 73" fill="none" xmlns="http://www.w3.org/2000/svg">
<circle cx="36.5" cy="36.5" r="36.5" fill="#6AC7B2" fill-opacity="0.08"/>
<g clip-path="url(#clip0_152_1878)">
<path fill-rule="evenodd" clip-rule="evenodd" d="M26.7168 32.8904V44.6858C26.7168 46.372 28.0964 47.7516 29.7826 47.7516H33.7089V37.5128C33.7089 36.7196 34.3579 36.0706 35.1511 36.0706H38.2102C38.7623 36.0706 39.2445 36.3851 39.4866 36.8437C41.0432 35.6085 43.0123 34.8704 45.1539 34.8704C45.6615 34.8704 46.1593 34.9125 46.6444 34.9923V32.8904L47.9436 33.8343C48.9024 34.5292 50.243 34.3151 50.9378 33.3562C51.6326 32.3974 51.4186 31.0569 50.4597 30.362L37.9758 21.292C37.2432 20.7364 36.2055 20.6976 35.4225 21.265L22.9015 30.362C21.9427 31.0569 21.7286 32.3974 22.4234 33.3562C23.1182 34.315 24.4587 34.5291 25.4176 33.8343L26.7168 32.8904ZM45.1538 35.848C49.6535 35.848 53.3011 39.4957 53.3011 43.9953C53.3011 48.495 49.6535 52.1427 45.1538 52.1427C40.6542 52.1427 37.0065 48.495 37.0065 43.9954C37.0065 39.4958 40.6542 35.848 45.1538 35.848ZM44.7216 40.5567C44.0454 40.6929 43.4076 41.1547 43.4443 41.9116C43.4877 42.8055 44.5777 43.0648 45.2887 43.1815C45.9941 43.2973 46.7238 43.4849 47.3405 43.8572C48.1301 44.3339 48.606 45.0172 48.7179 45.9387C48.8323 46.8806 48.468 47.7119 47.7143 48.2839C47.2509 48.6355 46.682 48.8578 46.1144 48.9718L45.9483 49.0052V49.5009C45.9483 49.9398 45.5924 50.2957 45.1535 50.2957C44.7147 50.2957 44.3587 49.9399 44.3587 49.501V48.9902L44.1982 48.9533C43.7504 48.8504 43.3179 48.674 42.935 48.419C42.256 47.9667 41.7893 47.3183 41.5924 46.5251C41.5418 46.3215 41.5738 46.1087 41.6816 45.9287C41.7908 45.7464 41.9665 45.6165 42.1729 45.5657C42.377 45.5155 42.5901 45.5477 42.7702 45.656C42.952 45.7652 43.0814 45.9404 43.1324 46.1462C43.3982 47.2197 44.5811 47.5725 45.5638 47.4533C46.215 47.3742 47.1714 47.0563 47.1523 46.2505C47.1268 45.181 45.8797 44.8853 45.0341 44.7464C44.3564 44.6352 43.652 44.4371 43.0723 44.0587C42.3239 43.5702 41.9044 42.884 41.8609 41.9863C41.831 41.3703 41.9925 40.7786 42.3506 40.2746C42.7924 39.6526 43.4726 39.2422 44.2041 39.0519L44.3588 39.0116V38.4898C44.3588 38.0509 44.7147 37.6951 45.1536 37.6951C45.5924 37.6951 45.9484 38.0509 45.9484 38.4898V38.9995L46.1045 39.0389C47.1845 39.3118 48.0159 40.0163 48.4477 41.0449C48.6152 41.4439 48.4214 41.9176 48.0224 42.085C47.6232 42.2524 47.1497 42.0587 46.9823 41.6597C46.6043 40.7593 45.6497 40.3699 44.7216 40.5567Z" fill="#6AC7B2"/>
</g>
<defs>
<clipPath id="clip0_152_1878">
<rect width="31.2857" height="31.2857" fill="white" transform="translate(22.0156 20.8569)"/>
</clipPath>
</defs>
</svg>
