<svg width="38" height="38" viewBox="0 0 38 38" fill="none" xmlns="http://www.w3.org/2000/svg">
<g clip-path="url(#clip0_1960_700)">
<path d="M15.6602 20.1133H22.3398V22.3398H15.6602V20.1133Z" fill="#27BAA4"/>
<path d="M30.8289 22.3398H24.5664V23.4531C24.5664 24.0683 24.0683 24.5664 23.4531 24.5664H14.5469C13.9317 24.5664 13.4336 24.0683 13.4336 23.4531V22.3398H7.1711C5.73166 22.3398 4.45863 21.4222 4.00288 20.0567L0 8.04602V32.3593C0 34.2009 1.49829 35.6992 3.33984 35.6992H34.6602C36.5017 35.6992 38 34.2009 38 32.3593V8.04689L33.9968 20.0567C33.5414 21.4222 32.2683 22.3398 30.8289 22.3398Z" fill="black"/>
<path d="M23.4527 2.30078H14.5464C12.7049 2.30078 11.2066 3.79907 11.2066 5.64063V6.75391H1.91504L6.11391 19.3522C6.26611 19.8077 6.69113 20.1133 7.17065 20.1133H13.4332V19C13.4332 18.3848 13.9312 17.8867 14.5464 17.8867H23.4527C24.0679 17.8867 24.566 18.3848 24.566 19V20.1133H30.8285C31.308 20.1133 31.733 19.8077 31.8852 19.3522L36.0844 6.75391H26.7925V5.64063C26.7925 3.79907 25.2942 2.30078 23.4527 2.30078ZM13.4332 6.75391V5.64063C13.4332 5.02629 13.9321 4.52734 14.5464 4.52734H23.4527C24.067 4.52734 24.566 5.02629 24.566 5.64063V6.75391H13.4332Z" fill="#27BAA4"/>
</g>
<defs>
<clipPath id="clip0_1960_700">
<rect width="38" height="38" fill="white"/>
</clipPath>
</defs>
</svg>
