<svg width="71" height="71" viewBox="0 0 71 71" fill="none" xmlns="http://www.w3.org/2000/svg">
<circle cx="35.5" cy="35.5" r="35.5" fill="#6AC7B2" fill-opacity="0.08"/>
<path d="M28.9489 49.1471H51.876V48.0553H50.2384V44.78H45.3254V45.3259H44.2337V44.2341C44.2337 44.0893 44.2912 43.9505 44.3935 43.8481C44.4959 43.7457 44.6348 43.6882 44.7795 43.6882H50.2384V42.0506H45.3254V42.5965H44.2337V41.5047C44.2337 41.3599 44.2912 41.2211 44.3935 41.1187C44.4959 41.0163 44.6348 40.9588 44.7795 40.9588H50.2384V39.3212H45.3254V39.8671H44.2337V38.7753C44.2337 38.6305 44.2912 38.4917 44.3935 38.3893C44.4959 38.2869 44.6348 38.2294 44.7795 38.2294H50.2384V36.5918H45.3254V37.1376H44.2337V36.0459C44.2337 35.9011 44.2912 35.7623 44.3935 35.6599C44.4959 35.5575 44.6348 35.5 44.7795 35.5H50.2384V33.3165C50.2382 33.2251 50.2152 33.1353 50.1713 33.0552C50.1274 32.9751 50.0641 32.9072 49.9873 32.8579L42.3449 27.945C42.2625 27.8921 42.1674 27.8624 42.0695 27.8589C41.9717 27.8554 41.8747 27.8783 41.7887 27.9252C41.7028 27.9721 41.631 28.0412 41.581 28.1254C41.5309 28.2095 41.5044 28.3056 41.5042 28.4035V48.0553H40.9584V20.2153C40.9584 20.0705 40.9009 19.9316 40.7985 19.8293C40.6961 19.7269 40.5573 19.6694 40.4125 19.6694H30.5866C30.4418 19.6694 30.303 19.7269 30.2006 19.8293C30.0982 19.9316 30.0407 20.0705 30.0407 20.2153V48.0553H29.4948V28.4035C29.4947 28.3056 29.4682 28.2095 29.4181 28.1254C29.3681 28.0412 29.2963 27.9721 29.2103 27.9252C29.1244 27.8783 29.0274 27.8554 28.9295 27.8589C28.8317 27.8624 28.7366 27.8921 28.6542 27.945L21.0118 32.8579C20.9349 32.9072 20.8717 32.9751 20.8278 33.0552C20.7839 33.1353 20.7608 33.2251 20.7607 33.3165V35.5H26.2195C26.3643 35.5 26.5031 35.5575 26.6055 35.6599C26.7079 35.7623 26.7654 35.9011 26.7654 36.0459V37.1376H25.6736V36.5918H20.7607V38.2294H26.2195C26.3643 38.2294 26.5031 38.2869 26.6055 38.3893C26.7079 38.4917 26.7654 38.6305 26.7654 38.7753V39.8671H25.6736V39.3212H20.7607V40.9588H26.2195C26.3643 40.9588 26.5031 41.0163 26.6055 41.1187C26.7079 41.2211 26.7654 41.3599 26.7654 41.5047V42.5965H25.6736V42.0506H20.7607V43.6882H26.2195C26.3643 43.6882 26.5031 43.7457 26.6055 43.8481C26.7079 43.9505 26.7654 44.0893 26.7654 44.2341V45.3259H25.6736V44.78H20.7607V48.0553H19.123V49.1471H28.9489ZM37.6831 24.5823H38.7748V45.8718H37.6831V24.5823ZM34.9537 24.5823H36.0454V45.8718H34.9537V24.5823ZM32.2242 24.5823H33.316V45.8718H32.2242V24.5823Z" fill="#6AC7B2"/>
</svg>
