<svg width="95" height="95" viewBox="0 0 95 95" fill="none" xmlns="http://www.w3.org/2000/svg">
<path d="M86.2127 42.9399C84.1132 42.9399 82.2132 43.7759 80.8072 45.1154L62.9662 29.4689C63.5742 28.3574 63.9257 27.0749 63.9257 25.7164C63.9257 21.3939 60.4107 17.8789 56.0882 17.8789C51.7657 17.8789 48.2507 21.3939 48.2507 25.7164C48.2507 28.8894 50.1412 31.6159 52.8582 32.8509L41.6672 62.5099C40.5842 61.9399 39.3492 61.6169 38.0382 61.6169C35.5492 61.6169 33.3262 62.7854 31.8917 64.6094L15.4377 54.9004C16.1882 53.7034 16.6252 52.2879 16.6252 50.7774C16.6252 46.4549 13.1102 42.9399 8.7877 42.9399C4.4652 42.9399 0.950195 46.4549 0.950195 50.7774C0.950195 55.0999 4.4652 58.6149 8.7877 58.6149C11.1057 58.6149 13.1767 57.5984 14.6112 56.0024L31.1412 65.7494C30.5427 66.8514 30.2102 68.1149 30.2102 69.4544C30.2102 73.7769 33.7252 77.2919 38.0477 77.2919C42.3702 77.2919 45.8852 73.7769 45.8852 69.4544C45.8852 66.9369 44.6882 64.7044 42.8452 63.2699L54.1502 33.2974C54.7772 33.4589 55.4232 33.5539 56.0977 33.5539C58.5677 33.5539 60.7717 32.4044 62.2062 30.6089L79.9142 46.1414C78.9547 47.4429 78.3847 49.0389 78.3847 50.7774C78.3847 55.0999 81.8997 58.6149 86.2222 58.6149C90.5447 58.6149 94.0597 55.0999 94.0597 50.7774C94.0502 46.4549 90.5352 42.9399 86.2127 42.9399ZM8.7877 54.5204C6.7167 54.5204 5.0352 52.8389 5.0352 50.7774C5.0352 48.7064 6.7167 47.0344 8.7877 47.0344C10.8587 47.0344 12.5307 48.7159 12.5307 50.7774C12.5307 52.8389 10.8492 54.5204 8.7877 54.5204ZM38.0382 73.1974C35.9672 73.1974 34.2857 71.5159 34.2857 69.4544C34.2857 67.3929 35.9672 65.7019 38.0382 65.7019C40.0997 65.7019 41.7812 67.3834 41.7812 69.4544C41.7907 71.5159 40.1092 73.1974 38.0382 73.1974ZM56.0882 29.4689C54.0172 29.4689 52.3357 27.7874 52.3357 25.7259C52.3357 23.6644 54.0172 21.9829 56.0882 21.9829C58.1497 21.9829 59.8312 23.6644 59.8312 25.7259C59.8407 27.7874 58.1592 29.4689 56.0882 29.4689ZM86.2127 54.5204C84.1417 54.5204 82.4602 52.8389 82.4602 50.7774C82.4602 48.7064 84.1417 47.0344 86.2127 47.0344C88.2837 47.0344 89.9557 48.7159 89.9557 50.7774C89.9652 52.8389 88.2837 54.5204 86.2127 54.5204Z" fill="#27BAA4"/>
<path d="M15.7521 44.7354C17.1581 28.6804 30.6671 16.0454 47.0831 16.0454C49.0401 16.0454 50.9591 16.2354 52.8211 16.5774C53.7236 16.2924 54.6831 16.1404 55.6711 16.1404C59.2051 16.1404 62.2926 18.0879 63.9266 20.9569C70.8046 25.3364 75.8776 32.3189 77.7491 40.5079L80.4376 42.8639C81.0076 42.4744 81.6156 42.1514 82.2521 41.8854C79.5541 24.9089 64.8101 11.8844 47.0831 11.8844C29.3561 11.8844 14.6121 24.9089 11.9141 41.8854C13.4246 42.5029 14.7451 43.4814 15.7521 44.7354Z" fill="black"/>
<path d="M77.5481 55.3658C74.0426 68.9128 61.7211 78.9543 47.0911 78.9543C44.9251 78.9543 42.8161 78.7358 40.7736 78.3178C39.7856 78.6598 38.7406 78.8593 37.6386 78.8593C33.7531 78.8593 30.4091 76.5128 28.9366 73.1593C24.3576 69.9103 20.6811 65.4738 18.3726 60.2963L14.4491 57.9783C14.0976 58.2728 13.7176 58.5293 13.3281 58.7763C18.0591 72.9028 31.4066 83.1153 47.1006 83.1153C62.7946 83.1153 76.1421 72.9028 80.8731 58.7858C79.4861 57.9403 78.3366 56.7718 77.5481 55.3658Z" fill="black"/>
<circle cx="56.5" cy="25.5" r="4.5" fill="#27BAA4"/>
<circle cx="86.5" cy="50.5" r="4.5" fill="#27BAA4"/>
<circle cx="38.5" cy="69.5" r="4.5" fill="#27BAA4"/>
<circle cx="8.5" cy="50.5" r="4.5" fill="#27BAA4"/>
</svg>
