<svg width="68" height="68" viewBox="0 0 68 68" fill="none" xmlns="http://www.w3.org/2000/svg">
<ellipse cx="33.6937" cy="34" rx="33.6937" ry="34" fill="#6AC7B2" fill-opacity="0.08"/>
<path d="M18.1637 48.8499C18.3345 49.0957 18.6151 49.2432 18.9155 49.2432H48.3277C48.6281 49.2432 48.9087 49.0957 49.0795 48.8499C49.2511 48.6032 49.2904 48.2885 49.185 48.007C48.8283 47.0532 48.1615 46.2165 47.8906 45.9019C47.7172 45.699 47.4634 45.5819 47.1961 45.5819H20.0471C19.7798 45.5819 19.526 45.699 19.3526 45.9019C19.0817 46.2165 18.4149 47.0532 18.0582 48.007C17.9528 48.2885 17.9921 48.6032 18.1637 48.8499V48.8499Z" fill="#6AC7B2"/>
<path d="M21.6621 32.7063H27.2151V43.7513H21.6621V32.7063Z" fill="#6AC7B2"/>
<path d="M30.875 32.7063H36.367V43.7513H30.875V32.7063Z" fill="#6AC7B2"/>
<path d="M40.0293 32.7064H45.5823V43.7514H40.0293V32.7064Z" fill="#6AC7B2"/>
<path d="M19.9812 30.6061C20.153 30.7786 20.3922 30.8757 20.6287 30.8757C20.6288 30.8757 20.629 30.8755 20.6291 30.8755C20.6292 30.8755 20.6294 30.8757 20.6296 30.8751H46.6136C46.6137 30.8757 46.6139 30.8755 46.6141 30.8755C46.6142 30.8755 46.6144 30.8757 46.6145 30.8757C46.851 30.8757 47.0901 30.7787 47.262 30.6061C47.4482 30.4199 48.8401 28.9703 49.2431 27.2144H18C18.403 28.9703 19.7949 30.4199 19.9812 30.6061V30.6061Z" fill="#6AC7B2"/>
<path d="M48.6621 25.3836L34.0324 18.0965C33.775 17.9678 33.4711 17.9678 33.2136 18.0965L18.584 25.3836H48.6621Z" fill="#6AC7B2"/>
</svg>
