<svg width="48" height="48" viewBox="0 0 48 48" fill="none" xmlns="http://www.w3.org/2000/svg">
<path d="M15 40.5C15 42.9814 17.0186 45 19.5 45H40.5C42.9814 45 45 42.9814 45 40.5V36H15V40.5ZM39 39.75C39 39.3354 39.3354 39 39.75 39C40.1646 39 40.5 39.3354 40.5 39.75V41.25C40.5 41.6646 40.1646 42 39.75 42C39.3354 42 39 41.6646 39 41.25V39.75ZM36 39.75C36 39.3354 36.3354 39 36.75 39C37.1646 39 37.5 39.3354 37.5 39.75V41.25C37.5 41.6646 37.1646 42 36.75 42C36.3354 42 36 41.6646 36 41.25V39.75ZM33 39.75C33 39.3354 33.3354 39 33.75 39C34.1646 39 34.5 39.3354 34.5 39.75V41.25C34.5 41.6646 34.1646 42 33.75 42C33.3354 42 33 41.6646 33 41.25V39.75ZM30 39.75C30 39.3354 30.3354 39 30.75 39C31.1646 39 31.5 39.3354 31.5 39.75V41.25C31.5 41.6646 31.1646 42 30.75 42C30.3354 42 30 41.6646 30 41.25V39.75Z" fill="#27BAA4"/>
<path d="M15 26.962V34.5H45V25.5H20.2367C18.6592 26.343 16.8828 26.8517 15 26.962ZM39 29.25C39 28.8354 39.3354 28.5 39.75 28.5C40.1646 28.5 40.5 28.8354 40.5 29.25V30.75C40.5 31.1646 40.1646 31.5 39.75 31.5C39.3354 31.5 39 31.1646 39 30.75V29.25ZM36 29.25C36 28.8354 36.3354 28.5 36.75 28.5C37.1646 28.5 37.5 28.8354 37.5 29.25V30.75C37.5 31.1646 37.1646 31.5 36.75 31.5C36.3354 31.5 36 31.1646 36 30.75V29.25ZM33 29.25C33 28.8354 33.3354 28.5 33.75 28.5C34.1646 28.5 34.5 28.8354 34.5 29.25V30.75C34.5 31.1646 34.1646 31.5 33.75 31.5C33.3354 31.5 33 31.1646 33 30.75V29.25ZM30 29.25C30 28.8354 30.3354 28.5 30.75 28.5C31.1646 28.5 31.5 28.8354 31.5 29.25V30.75C31.5 31.1646 31.1646 31.5 30.75 31.5C30.3354 31.5 30 31.1646 30 30.75V29.25Z" fill="#27BAA4"/>
<path d="M22.4482 24H44.9998V15H26.9618C26.7506 18.6039 25.0473 21.8108 22.4482 24ZM38.9998 18.75C38.9998 18.3354 39.3352 18 39.7498 18C40.1643 18 40.4998 18.3354 40.4998 18.75V20.25C40.4998 20.6646 40.1643 21 39.7498 21C39.3352 21 38.9998 20.6646 38.9998 20.25V18.75ZM35.9998 18.75C35.9998 18.3354 36.3352 18 36.7498 18C37.1643 18 37.4998 18.3354 37.4998 18.75V20.25C37.4998 20.6646 37.1643 21 36.7498 21C36.3352 21 35.9998 20.6646 35.9998 20.25V18.75ZM32.9998 18.75C32.9998 18.3354 33.3352 18 33.7498 18C34.1643 18 34.4998 18.3354 34.4998 18.75V20.25C34.4998 20.6646 34.1643 21 33.7498 21C33.3352 21 32.9998 20.6646 32.9998 20.25V18.75ZM29.9998 18.75C29.9998 18.3354 30.3352 18 30.7498 18C31.1643 18 31.4998 18.3354 31.4998 18.75V20.25C31.4998 20.6646 31.1643 21 30.7498 21C30.3352 21 29.9998 20.6646 29.9998 20.25V18.75Z" fill="#27BAA4"/>
<path d="M40.4998 4.5H22.4482C25.0473 6.68921 26.7506 9.89612 26.9618 13.5H44.9998V9C44.9998 6.51855 42.9812 4.5 40.4998 4.5ZM31.4998 9.75C31.4998 10.1646 31.1643 10.5 30.7498 10.5C30.3352 10.5 29.9998 10.1646 29.9998 9.75V8.25C29.9998 7.83545 30.3352 7.5 30.7498 7.5C31.1643 7.5 31.4998 7.83545 31.4998 8.25V9.75ZM34.4998 9.75C34.4998 10.1646 34.1643 10.5 33.7498 10.5C33.3352 10.5 32.9998 10.1646 32.9998 9.75V8.25C32.9998 7.83545 33.3352 7.5 33.7498 7.5C34.1643 7.5 34.4998 7.83545 34.4998 8.25V9.75ZM37.4998 9.75C37.4998 10.1646 37.1643 10.5 36.7498 10.5C36.3352 10.5 35.9998 10.1646 35.9998 9.75V8.25C35.9998 7.83545 36.3352 7.5 36.7498 7.5C37.1643 7.5 37.4998 7.83545 37.4998 8.25V9.75ZM40.4998 9.75C40.4998 10.1646 40.1643 10.5 39.7498 10.5C39.3352 10.5 38.9998 10.1646 38.9998 9.75V8.25C38.9998 7.83545 39.3352 7.5 39.7498 7.5C40.1643 7.5 40.4998 7.83545 40.4998 8.25V9.75Z" fill="#27BAA4"/>
<path d="M25.5 14.25C25.5 8.03677 20.4632 3 14.25 3C8.03677 3 3 8.03677 3 14.25C3 20.4632 8.03677 25.5 14.25 25.5C20.4632 25.5 25.5 20.4632 25.5 14.25ZM13.2803 19.2803C13.1338 19.4268 12.9419 19.5 12.75 19.5C12.5581 19.5 12.3662 19.4268 12.2197 19.2803L7.71973 14.7803C7.42676 14.4873 7.42676 14.0127 7.71973 13.7197C8.0127 13.4268 8.4873 13.4268 8.78027 13.7197L12.75 17.6895L21.2197 9.21973C21.5127 8.92676 21.9873 8.92676 22.2803 9.21973C22.5732 9.5127 22.5732 9.9873 22.2803 10.2803L13.2803 19.2803Z" fill="black"/>
</svg>
