<svg width="75" height="75" viewBox="0 0 75 75" fill="none" xmlns="http://www.w3.org/2000/svg">
<circle cx="37.5" cy="37.5" r="37.5" fill="#6AC7B2" fill-opacity="0.08"/>
<circle cx="37.3052" cy="39.9697" r="3.90673" fill="white"/>
<path d="M42.4725 48.0952L42.6354 47.9322L41.4363 46.7331C40.2372 47.4884 38.8229 47.9322 37.304 47.9322C33.0104 47.9322 29.5177 44.4395 29.5177 40.1459C29.5177 35.8523 33.0104 32.3596 37.304 32.3596C41.5976 32.3596 45.0903 35.8523 45.0903 40.1459C45.0903 41.6648 44.6465 43.0791 43.8912 44.2782L45.0903 45.4773L45.2533 45.3143C45.4619 45.1058 45.8312 45.1058 46.0397 45.3143L49.5397 48.8143V35.6371L37.304 24.7612L25.0684 35.6371V53.4939H47.0848L42.4725 48.8816C42.255 48.6641 42.255 48.3126 42.4725 48.0952Z" fill="#6AC7B2"/>
<path d="M44.3045 46.2642L43.2278 45.1875C42.9575 45.5045 42.6627 45.7993 42.3457 46.0696L43.4224 47.1463L44.3045 46.2642Z" fill="#6AC7B2"/>
<path d="M49.5392 23.4609H45.0898V26.9398L49.5392 30.9442V23.4609Z" fill="#6AC7B2"/>
<path d="M37.3048 35.6969C34.8515 35.6969 32.8555 37.693 32.8555 40.1462C32.8555 42.5995 34.8515 44.5956 37.3048 44.5956C39.758 44.5956 41.7541 42.5995 41.7541 40.1462C41.7541 37.693 39.758 35.6969 37.3048 35.6969ZM37.3048 39.5901C38.2247 39.5901 38.9733 40.3387 38.9733 41.2586C38.9733 41.9827 38.5067 42.5945 37.861 42.8247V43.4832H36.7486V42.8247C36.1029 42.5945 35.6363 41.9827 35.6363 41.2586H36.7486C36.7486 41.5656 36.9984 41.8147 37.3048 41.8147C37.6112 41.8147 37.861 41.5656 37.861 41.2586C37.861 40.9516 37.6112 40.7024 37.3048 40.7024C36.3849 40.7024 35.6363 39.9538 35.6363 39.0339C35.6363 38.3098 36.1029 37.698 36.7486 37.4677V36.8092H37.861V37.4677C38.5067 37.698 38.9733 38.3098 38.9733 39.0339H37.861C37.861 38.7269 37.6112 38.4777 37.3048 38.4777C36.9984 38.4777 36.7486 38.7269 36.7486 39.0339C36.7486 39.3409 36.9984 39.5901 37.3048 39.5901Z" fill="#6AC7B2"/>
<path d="M45.6468 46.4946L43.6523 48.489L48.2446 53.0819C48.511 53.3477 48.8653 53.4945 49.2418 53.4945C50.0193 53.4945 50.6522 52.8616 50.6522 52.0847C50.6522 51.7081 50.5054 51.3544 50.239 51.0874L45.6468 46.4946Z" fill="#6AC7B2"/>
<path d="M37.3049 33.4722C33.6247 33.4722 30.6309 36.466 30.6309 40.1462C30.6309 43.8263 33.6247 46.8202 37.3049 46.8202C40.985 46.8202 43.9788 43.8263 43.9788 40.1462C43.9788 36.466 40.985 33.4722 37.3049 33.4722ZM37.3049 45.7078C34.2382 45.7078 31.7432 43.2129 31.7432 40.1462C31.7432 37.0795 34.2382 34.5845 37.3049 34.5845C40.3716 34.5845 42.8665 37.0795 42.8665 40.1462C42.8665 43.2129 40.3716 45.7078 37.3049 45.7078Z" fill="#6AC7B2"/>
<path d="M37.3046 21.4287C35.1044 23.4087 23.7964 33.5859 21.4277 35.7177L22.3109 36.6009L36.9353 23.6017C37.1461 23.4137 37.4637 23.4137 37.6745 23.6017L52.2983 36.6009L53.1815 35.7177L37.3046 21.4287Z" fill="#6AC7B2"/>
</svg>
