<svg width="332" height="67" viewBox="0 0 332 67" fill="none" xmlns="http://www.w3.org/2000/svg">
<path d="M30.3468 8.78116C31.2448 6.01723 35.1551 6.01722 36.0531 8.78115L39.9803 20.8677C40.3819 22.1037 41.5338 22.9406 42.8334 22.9406H55.5419C58.4481 22.9406 59.6564 26.6595 57.3053 28.3677L47.0239 35.8375C45.9725 36.6015 45.5325 37.9556 45.9341 39.1916L49.8612 51.2781C50.7593 54.0421 47.5959 56.3405 45.2447 54.6322L34.9633 47.1624C33.9119 46.3984 32.4881 46.3984 31.4366 47.1624L21.1552 54.6322C18.8041 56.3404 15.6406 54.0421 16.5387 51.2781L20.4658 39.1916C20.8675 37.9556 20.4275 36.6015 19.376 35.8375L9.09462 28.3677C6.74348 26.6595 7.9518 22.9406 10.858 22.9406H23.5665C24.8662 22.9406 26.018 22.1037 26.4196 20.8677L30.3468 8.78116Z" fill="#FFDC06"/>
<path d="M96.7482 8.78116C97.6462 6.01723 101.556 6.01722 102.454 8.78115L106.382 20.8677C106.783 22.1037 107.935 22.9406 109.235 22.9406H121.943C124.849 22.9406 126.058 26.6595 123.707 28.3677L113.425 35.8375C112.374 36.6015 111.934 37.9556 112.335 39.1916L116.263 51.2781C117.161 54.0421 113.997 56.3405 111.646 54.6322L101.365 47.1624C100.313 46.3984 98.8894 46.3984 97.838 47.1624L87.5566 54.6322C85.2054 56.3404 82.042 54.0421 82.9401 51.2781L86.8672 39.1916C87.2688 37.9556 86.8288 36.6015 85.7774 35.8375L75.496 28.3677C73.1448 26.6595 74.3532 22.9406 77.2593 22.9406H89.9678C91.2675 22.9406 92.4194 22.1037 92.821 20.8677L96.7482 8.78116Z" fill="#FFDC06"/>
<path d="M163.148 8.78116C164.046 6.01723 167.956 6.01722 168.854 8.78115L172.781 20.8677C173.183 22.1037 174.335 22.9406 175.634 22.9406H188.343C191.249 22.9406 192.457 26.6595 190.106 28.3677L179.825 35.8375C178.773 36.6015 178.333 37.9556 178.735 39.1916L182.662 51.2781C183.56 54.0421 180.397 56.3405 178.045 54.6322L167.764 47.1624C166.713 46.3984 165.289 46.3984 164.237 47.1624L153.956 54.6322C151.605 56.3404 148.441 54.0421 149.339 51.2781L153.267 39.1916C153.668 37.9556 153.228 36.6015 152.177 35.8375L141.895 28.3677C139.544 26.6595 140.753 22.9406 143.659 22.9406H156.367C157.667 22.9406 158.819 22.1037 159.22 20.8677L163.148 8.78116Z" fill="#FFDC06"/>
<path d="M229.546 8.78116C230.444 6.01723 234.354 6.01722 235.252 8.78115L239.179 20.8677C239.581 22.1037 240.733 22.9406 242.033 22.9406H254.741C257.647 22.9406 258.856 26.6595 256.505 28.3677L246.223 35.8375C245.172 36.6015 244.732 37.9556 245.133 39.1916L249.06 51.2781C249.959 54.0421 246.795 56.3405 244.444 54.6322L234.163 47.1624C233.111 46.3984 231.687 46.3984 230.636 47.1624L220.354 54.6322C218.003 56.3404 214.84 54.0421 215.738 51.2781L219.665 39.1916C220.067 37.9556 219.627 36.6015 218.575 35.8375L208.294 28.3677C205.943 26.6595 207.151 22.9406 210.057 22.9406H222.766C224.065 22.9406 225.217 22.1037 225.619 20.8677L229.546 8.78116Z" fill="#FFDC06"/>
<path d="M295.946 8.78116C296.844 6.01723 300.755 6.01722 301.653 8.78115L305.58 20.8677C305.982 22.1037 307.133 22.9406 308.433 22.9406H321.142C324.048 22.9406 325.256 26.6595 322.905 28.3677L312.624 35.8375C311.572 36.6015 311.132 37.9556 311.534 39.1916L315.461 51.2781C316.359 54.0421 313.195 56.3405 310.844 54.6322L300.563 47.1624C299.511 46.3984 298.088 46.3984 297.036 47.1624L286.755 54.6322C284.404 56.3404 281.24 54.0421 282.138 51.2781L286.065 39.1916C286.467 37.9556 286.027 36.6015 284.976 35.8375L274.694 28.3677C272.343 26.6595 273.551 22.9406 276.458 22.9406H289.166C290.466 22.9406 291.618 22.1037 292.019 20.8677L295.946 8.78116Z" fill="#FFDC06"/>
</svg>
